<svg xmlns="http://www.w3.org/2000/svg" width="900" height="1100" viewBox="0 0 900 1100" role="img" aria-labelledby="title desc">
  <title id="title">Smoak Salon hero image placeholder</title><desc id="desc">Editorial salon-inspired portrait placeholder for a luxury Jackson hair salon.</desc>
  <defs><linearGradient id="g" x1="0" x2="1" y1="0" y2="1"><stop stop-color="#211a17"/><stop offset=".42" stop-color="#6f4235"/><stop offset="1" stop-color="#f8f1e7"/></linearGradient></defs>
  <rect width="900" height="1100" fill="url(#g)"/><circle cx="610" cy="330" r="190" fill="#e7cbc3" opacity=".74"/><path d="M205 1040c95-260 180-420 315-530 92-74 180-86 257-48 62 31 92 92 101 179v399z" fill="#171210" opacity=".72"/><path d="M338 330c34-125 146-206 268-175 105 27 171 124 153 234-21 130-133 210-255 182-124-29-200-116-166-241z" fill="#c9a668" opacity=".86"/><path d="M395 365c36-114 137-178 243-144 71 23 119 91 116 174-55-46-123-49-202-7-54 29-100 24-157-23z" fill="#211a17" opacity=".72"/><text x="70" y="1000" fill="#fffdf9" font-family="Georgia, serif" font-size="62">Smoak Salon</text><text x="74" y="1048" fill="#f8f1e7" font-family="Arial, sans-serif" font-size="24" letter-spacing="5">REPLACE WITH REAL SALON PHOTO</text>
</svg>
